<svg xmlns="http://www.w3.org/2000/svg" viewBox="0 0 1600 700" width="1600" height="700"><g transform="translate(-69.3,0)"><path d="M-80.0,-160.0L-10.7,-120.0L-10.7,-40.0L-80.0,0.0L-149.3,-40.0L-149.3,-120.0ZM58.6,-160.0L127.9,-120.0L127.9,-40.0L58.6,0.0L-10.7,-40.0L-10.7,-120.0ZM197.1,-160.0L266.4,-120.0L266.4,-40.0L197.1,0.0L127.8,-40.0L127.8,-120.0ZM335.7,-160.0L405.0,-120.0L405.0,-40.0L335.7,0.0L266.4,-40.0L266.4,-120.0ZM474.3,-160.0L543.6,-120.0L543.6,-40.0L474.3,0.0L405.0,-40.0L405.0,-120.0ZM612.8,-160.0L682.1,-120.0L682.1,-40.0L612.8,0.0L543.5,-40.0L543.5,-120.0ZM751.4,-160.0L820.7,-120.0L820.7,-40.0L751.4,0.0L682.1,-40.0L682.1,-120.0ZM889.9,-160.0L959.2,-120.0L959.2,-40.0L889.9,0.0L820.6,-40.0L820.6,-120.0ZM1028.5,-160.0L1097.8,-120.0L1097.8,-40.0L1028.5,0.0L959.2,-40.0L959.2,-120.0ZM1167.1,-160.0L1236.4,-120.0L1236.4,-40.0L1167.1,0.0L1097.8,-40.0L1097.8,-120.0ZM1305.6,-160.0L1374.9,-120.0L1374.9,-40.0L1305.6,0.0L1236.3,-40.0L1236.3,-120.0ZM1444.2,-160.0L1513.5,-120.0L1513.5,-40.0L1444.2,0.0L1374.9,-40.0L1374.9,-120.0ZM1582.8,-160.0L1652.1,-120.0L1652.1,-40.0L1582.8,0.0L1513.5,-40.0L1513.5,-120.0ZM-10.7,-40.0L58.6,0.0L58.6,80.0L-10.7,120.0L-80.0,80.0L-80.0,-0.0ZM127.8,-40.0L197.1,0.0L197.1,80.0L127.8,120.0L58.5,80.0L58.5,-0.0ZM266.4,-40.0L335.7,0.0L335.7,80.0L266.4,120.0L197.1,80.0L197.1,-0.0ZM405.0,-40.0L474.3,0.0L474.3,80.0L405.0,120.0L335.7,80.0L335.7,-0.0ZM543.5,-40.0L612.8,0.0L612.8,80.0L543.5,120.0L474.2,80.0L474.2,-0.0ZM682.1,-40.0L751.4,0.0L751.4,80.0L682.1,120.0L612.8,80.0L612.8,-0.0ZM820.7,-40.0L890.0,0.0L890.0,80.0L820.7,120.0L751.4,80.0L751.4,-0.0ZM959.2,-40.0L1028.5,0.0L1028.5,80.0L959.2,120.0L889.9,80.0L889.9,-0.0ZM1097.8,-40.0L1167.1,0.0L1167.1,80.0L1097.8,120.0L1028.5,80.0L1028.5,-0.0ZM1236.4,-40.0L1305.7,0.0L1305.7,80.0L1236.4,120.0L1167.1,80.0L1167.1,-0.0ZM1374.9,-40.0L1444.2,0.0L1444.2,80.0L1374.9,120.0L1305.6,80.0L1305.6,-0.0ZM1513.5,-40.0L1582.8,0.0L1582.8,80.0L1513.5,120.0L1444.2,80.0L1444.2,-0.0ZM1652.1,-40.0L1721.4,0.0L1721.4,80.0L1652.1,120.0L1582.8,80.0L1582.8,-0.0ZM-80.0,80.0L-10.7,120.0L-10.7,200.0L-80.0,240.0L-149.3,200.0L-149.3,120.0ZM58.6,80.0L127.9,120.0L127.9,200.0L58.6,240.0L-10.7,200.0L-10.7,120.0ZM197.1,80.0L266.4,120.0L266.4,200.0L197.1,240.0L127.8,200.0L127.8,120.0ZM335.7,80.0L405.0,120.0L405.0,200.0L335.7,240.0L266.4,200.0L266.4,120.0ZM474.3,80.0L543.6,120.0L543.6,200.0L474.3,240.0L405.0,200.0L405.0,120.0ZM612.8,80.0L682.1,120.0L682.1,200.0L612.8,240.0L543.5,200.0L543.5,120.0ZM751.4,80.0L820.7,120.0L820.7,200.0L751.4,240.0L682.1,200.0L682.1,120.0ZM889.9,80.0L959.2,120.0L959.2,200.0L889.9,240.0L820.6,200.0L820.6,120.0ZM1028.5,80.0L1097.8,120.0L1097.8,200.0L1028.5,240.0L959.2,200.0L959.2,120.0ZM1167.1,80.0L1236.4,120.0L1236.4,200.0L1167.1,240.0L1097.8,200.0L1097.8,120.0ZM1305.6,80.0L1374.9,120.0L1374.9,200.0L1305.6,240.0L1236.3,200.0L1236.3,120.0ZM1444.2,80.0L1513.5,120.0L1513.5,200.0L1444.2,240.0L1374.9,200.0L1374.9,120.0ZM1582.8,80.0L1652.1,120.0L1652.1,200.0L1582.8,240.0L1513.5,200.0L1513.5,120.0ZM-10.7,200.0L58.6,240.0L58.6,320.0L-10.7,360.0L-80.0,320.0L-80.0,240.0ZM127.8,200.0L197.1,240.0L197.1,320.0L127.8,360.0L58.5,320.0L58.5,240.0ZM266.4,200.0L335.7,240.0L335.7,320.0L266.4,360.0L197.1,320.0L197.1,240.0ZM405.0,200.0L474.3,240.0L474.3,320.0L405.0,360.0L335.7,320.0L335.7,240.0ZM543.5,200.0L612.8,240.0L612.8,320.0L543.5,360.0L474.2,320.0L474.2,240.0ZM682.1,200.0L751.4,240.0L751.4,320.0L682.1,360.0L612.8,320.0L612.8,240.0ZM820.7,200.0L890.0,240.0L890.0,320.0L820.7,360.0L751.4,320.0L751.4,240.0ZM959.2,200.0L1028.5,240.0L1028.5,320.0L959.2,360.0L889.9,320.0L889.9,240.0ZM1097.8,200.0L1167.1,240.0L1167.1,320.0L1097.8,360.0L1028.5,320.0L1028.5,240.0ZM1236.4,200.0L1305.7,240.0L1305.7,320.0L1236.4,360.0L1167.1,320.0L1167.1,240.0ZM1374.9,200.0L1444.2,240.0L1444.2,320.0L1374.9,360.0L1305.6,320.0L1305.6,240.0ZM1513.5,200.0L1582.8,240.0L1582.8,320.0L1513.5,360.0L1444.2,320.0L1444.2,240.0ZM1652.1,200.0L1721.4,240.0L1721.4,320.0L1652.1,360.0L1582.8,320.0L1582.8,240.0ZM-80.0,320.0L-10.7,360.0L-10.7,440.0L-80.0,480.0L-149.3,440.0L-149.3,360.0ZM58.6,320.0L127.9,360.0L127.9,440.0L58.6,480.0L-10.7,440.0L-10.7,360.0ZM197.1,320.0L266.4,360.0L266.4,440.0L197.1,480.0L127.8,440.0L127.8,360.0ZM335.7,320.0L405.0,360.0L405.0,440.0L335.7,480.0L266.4,440.0L266.4,360.0ZM474.3,320.0L543.6,360.0L543.6,440.0L474.3,480.0L405.0,440.0L405.0,360.0ZM612.8,320.0L682.1,360.0L682.1,440.0L612.8,480.0L543.5,440.0L543.5,360.0ZM751.4,320.0L820.7,360.0L820.7,440.0L751.4,480.0L682.1,440.0L682.1,360.0ZM889.9,320.0L959.2,360.0L959.2,440.0L889.9,480.0L820.6,440.0L820.6,360.0ZM1028.5,320.0L1097.8,360.0L1097.8,440.0L1028.5,480.0L959.2,440.0L959.2,360.0ZM1167.1,320.0L1236.4,360.0L1236.4,440.0L1167.1,480.0L1097.8,440.0L1097.8,360.0ZM1305.6,320.0L1374.9,360.0L1374.9,440.0L1305.6,480.0L1236.3,440.0L1236.3,360.0ZM1444.2,320.0L1513.5,360.0L1513.5,440.0L1444.2,480.0L1374.9,440.0L1374.9,360.0ZM1582.8,320.0L1652.1,360.0L1652.1,440.0L1582.8,480.0L1513.5,440.0L1513.5,360.0ZM-10.7,440.0L58.6,480.0L58.6,560.0L-10.7,600.0L-80.0,560.0L-80.0,480.0ZM127.8,440.0L197.1,480.0L197.1,560.0L127.8,600.0L58.5,560.0L58.5,480.0ZM266.4,440.0L335.7,480.0L335.7,560.0L266.4,600.0L197.1,560.0L197.1,480.0ZM405.0,440.0L474.3,480.0L474.3,560.0L405.0,600.0L335.7,560.0L335.7,480.0ZM543.5,440.0L612.8,480.0L612.8,560.0L543.5,600.0L474.2,560.0L474.2,480.0ZM682.1,440.0L751.4,480.0L751.4,560.0L682.1,600.0L612.8,560.0L612.8,480.0ZM820.7,440.0L890.0,480.0L890.0,560.0L820.7,600.0L751.4,560.0L751.4,480.0ZM959.2,440.0L1028.5,480.0L1028.5,560.0L959.2,600.0L889.9,560.0L889.9,480.0ZM1097.8,440.0L1167.1,480.0L1167.1,560.0L1097.8,600.0L1028.5,560.0L1028.5,480.0ZM1236.4,440.0L1305.7,480.0L1305.7,560.0L1236.4,600.0L1167.1,560.0L1167.1,480.0ZM1374.9,440.0L1444.2,480.0L1444.2,560.0L1374.9,600.0L1305.6,560.0L1305.6,480.0ZM1513.5,440.0L1582.8,480.0L1582.8,560.0L1513.5,600.0L1444.2,560.0L1444.2,480.0ZM1652.1,440.0L1721.4,480.0L1721.4,560.0L1652.1,600.0L1582.8,560.0L1582.8,480.0ZM-80.0,560.0L-10.7,600.0L-10.7,680.0L-80.0,720.0L-149.3,680.0L-149.3,600.0ZM58.6,560.0L127.9,600.0L127.9,680.0L58.6,720.0L-10.7,680.0L-10.7,600.0ZM197.1,560.0L266.4,600.0L266.4,680.0L197.1,720.0L127.8,680.0L127.8,600.0ZM335.7,560.0L405.0,600.0L405.0,680.0L335.7,720.0L266.4,680.0L266.4,600.0ZM474.3,560.0L543.6,600.0L543.6,680.0L474.3,720.0L405.0,680.0L405.0,600.0ZM612.8,560.0L682.1,600.0L682.1,680.0L612.8,720.0L543.5,680.0L543.5,600.0ZM751.4,560.0L820.7,600.0L820.7,680.0L751.4,720.0L682.1,680.0L682.1,600.0ZM889.9,560.0L959.2,600.0L959.2,680.0L889.9,720.0L820.6,680.0L820.6,600.0ZM1028.5,560.0L1097.8,600.0L1097.8,680.0L1028.5,720.0L959.2,680.0L959.2,600.0ZM1167.1,560.0L1236.4,600.0L1236.4,680.0L1167.1,720.0L1097.8,680.0L1097.8,600.0ZM1305.6,560.0L1374.9,600.0L1374.9,680.0L1305.6,720.0L1236.3,680.0L1236.3,600.0ZM1444.2,560.0L1513.5,600.0L1513.5,680.0L1444.2,720.0L1374.9,680.0L1374.9,600.0ZM1582.8,560.0L1652.1,600.0L1652.1,680.0L1582.8,720.0L1513.5,680.0L1513.5,600.0ZM-10.7,680.0L58.6,720.0L58.6,800.0L-10.7,840.0L-80.0,800.0L-80.0,720.0ZM127.8,680.0L197.1,720.0L197.1,800.0L127.8,840.0L58.5,800.0L58.5,720.0ZM266.4,680.0L335.7,720.0L335.7,800.0L266.4,840.0L197.1,800.0L197.1,720.0ZM405.0,680.0L474.3,720.0L474.3,800.0L405.0,840.0L335.7,800.0L335.7,720.0ZM543.5,680.0L612.8,720.0L612.8,800.0L543.5,840.0L474.2,800.0L474.2,720.0ZM682.1,680.0L751.4,720.0L751.4,800.0L682.1,840.0L612.8,800.0L612.8,720.0ZM820.7,680.0L890.0,720.0L890.0,800.0L820.7,840.0L751.4,800.0L751.4,720.0ZM959.2,680.0L1028.5,720.0L1028.5,800.0L959.2,840.0L889.9,800.0L889.9,720.0ZM1097.8,680.0L1167.1,720.0L1167.1,800.0L1097.8,840.0L1028.5,800.0L1028.5,720.0ZM1236.4,680.0L1305.7,720.0L1305.7,800.0L1236.4,840.0L1167.1,800.0L1167.1,720.0ZM1374.9,680.0L1444.2,720.0L1444.2,800.0L1374.9,840.0L1305.6,800.0L1305.6,720.0ZM1513.5,680.0L1582.8,720.0L1582.8,800.0L1513.5,840.0L1444.2,800.0L1444.2,720.0ZM1652.1,680.0L1721.4,720.0L1721.4,800.0L1652.1,840.0L1582.8,800.0L1582.8,720.0Z" fill="none" stroke="#000" stroke-width="3.2"/></g></svg>